PathFileType	4	(X/Y/Z)	C:\Git\research_data\Projects\torsion_deformities_healthy_kinematics\simulations\P01\pre\dynamic07_l\marker_experimental.trc
DataRate	CameraRate	NumFrames	NumMarkers	Units	OrigDataRate	OrigDataStartFrame	OrigNumFrames
200	200	7	34	mm	200	1	802
Frame#	Time	C7			T10			CLAV			STRN			RBAK			LASI			RASI			SACR			LT1			LT2			LT3			LS1			LS2			LS3			LHEE			LTOE			RT1			RT2			RT3			RS1			RS2			RS3			RHEE			RTOE			LKNE			LANK			RKNE			RANK			LAJC			LKJC			RAJC			RKJC			RHJC			LHJC		
		X1	Y1	Z1	X2	Y2	Z2	X3	Y3	Z3	X4	Y4	Z4	X5	Y5	Z5	X6	Y6	Z6	X7	Y7	Z7	X8	Y8	Z8	X9	Y9	Z9	X10	Y10	Z10	X11	Y11	Z11	X12	Y12	Z12	X13	Y13	Z13	X14	Y14	Z14	X15	Y15	Z15	X16	Y16	Z16	X17	Y17	Z17	X18	Y18	Z18	X19	Y19	Z19	X20	Y20	Z20	X21	Y21	Z21	X22	Y22	Z22	X23	Y23	Z23	X24	Y24	Z24	X25	Y25	Z25	X26	Y26	Z26	X27	Y27	Z27	X28	Y28	Z28	X29	Y29	Z29	X30	Y30	Z30	X31	Y31	Z31	X32	Y32	Z32	X33	Y33	Z33	X34	Y34	Z34	

1	0.000000	-2674.150146	1023.243896	378.783417	-2699.291504	849.739685	374.832855	-2562.563965	986.122559	395.010345	-2514.721924	855.134399	395.916809	-2705.945801	963.040833	463.329559	-2580.834717	681.668457	282.231445	-2584.863525	683.874268	498.671600	-2724.558350	738.298096	390.623047	-2634.570557	492.903015	254.141266	-2710.014893	431.253265	252.907059	-2577.719482	387.881287	286.386292	-2707.795166	253.462860	262.158478	-2810.958252	197.696808	231.980225	-2685.136719	160.093094	284.117187	-2824.081299	51.070278	299.834473	-2688.422119	41.098351	325.171478	-2591.018799	532.043762	543.131165	-2620.508545	439.391144	533.503723	-2482.742432	470.578735	536.299194	-2538.729736	287.763947	534.296631	-2639.648193	216.547913	548.018311	-2498.915527	201.151840	527.089417	-2619.163818	53.544128	484.752716	-2473.969482	48.456150	477.806335	-2683.185547	346.383728	280.409668	-2776.469971	41.841106	282.676086	-2526.022217	374.033234	523.968079	-2574.665039	52.857658	516.327087	-2779.344482	41.201706	316.444183	-2679.614014	338.384460	331.143494	-2572.410889	58.048603	479.888611	-2521.322510	371.050323	470.428772	-2655.204494	629.886802	468.402727	-2652.273778	628.282207	310.955511	
2	0.005000	-2668.002441	1021.670776	379.560272	-2692.937500	848.154480	375.705383	-2556.358887	984.644348	395.586639	-2508.454834	853.754944	396.387146	-2699.781494	961.604980	463.912476	-2575.238525	680.051697	282.505127	-2578.521484	682.413269	499.056274	-2718.222168	737.617371	391.341400	-2630.992920	492.020111	254.620193	-2706.966553	431.338379	253.812180	-2575.320801	386.640167	286.079254	-2706.024170	253.252472	262.833435	-2809.613525	198.421249	232.630463	-2684.271484	159.723175	284.429840	-2824.152832	51.569176	300.560730	-2688.317383	41.091244	325.340210	-2585.665527	530.249268	543.041077	-2615.208252	437.916290	533.053772	-2477.171143	468.962036	535.217468	-2529.726562	287.874298	534.232361	-2627.125732	213.191986	550.239075	-2486.419922	203.342804	527.217468	-2599.732422	50.613136	487.970154	-2455.742432	51.154522	479.759918	-2681.162598	346.024841	280.883087	-2776.576416	42.192173	282.755646	-2520.404053	372.514069	522.555908	-2556.183350	51.511177	519.141846	-2779.424561	41.472649	316.524353	-2677.316162	337.853882	331.569427	-2554.721436	56.410484	482.622681	-2515.996338	369.867249	468.974121	-2649.299411	628.809468	469.042575	-2646.911358	627.091640	311.521363	
3	0.010000	-2661.841064	1020.152954	380.375427	-2686.579102	846.624146	376.584778	-2550.138916	983.214722	396.210907	-2502.160889	852.423401	396.914246	-2693.593750	960.206909	464.548645	-2569.542236	678.487244	282.825165	-2572.128662	680.969177	499.449097	-2711.864502	736.909668	392.053894	-2627.314697	491.184235	255.067627	-2703.790039	431.410950	254.707855	-2572.731201	385.403290	285.699066	-2704.164551	253.059601	263.445465	-2808.225586	199.227783	233.300217	-2683.338623	159.363281	284.669128	-2824.176758	52.185711	301.222321	-2688.216797	41.089565	325.467377	-2580.228027	528.471680	542.986755	-2609.866943	436.436188	532.640259	-2471.578857	467.329498	534.231567	-2520.829834	287.932800	534.179016	-2614.756836	210.027496	552.407410	-2474.238037	205.410034	527.300049	-2580.990723	47.916954	490.904083	-2438.072998	53.906815	481.607788	-2678.926270	345.688660	281.309479	-2776.673096	42.613697	282.836273	-2514.811035	370.971069	521.231750	-2538.049805	50.559616	521.823486	-2779.469238	41.815647	316.607574	-2674.774414	337.325806	331.940369	-2537.342773	55.132343	485.239594	-2510.674561	368.649078	467.613281	-2643.310090	627.732572	469.674008	-2641.428753	625.927242	312.104212	
4	0.015000	-2655.666016	1018.690369	381.228882	-2680.215820	845.148804	377.470978	-2543.904053	981.833679	396.883148	-2495.840332	851.139832	397.498077	-2687.382324	958.846680	465.238007	-2563.746338	676.975342	283.191467	-2565.685059	679.542114	499.850037	-2705.485352	736.174988	392.760498	-2623.535156	490.395081	255.483810	-2700.484619	431.470581	255.593872	-2569.950439	384.171265	285.246429	-2702.215088	252.884048	263.994568	-2806.793945	200.116562	233.988846	-2682.337891	159.013184	284.835388	-2824.152588	52.920364	301.819183	-2688.119873	41.093220	325.553131	-2574.705811	526.711365	542.968323	-2604.483643	434.951233	532.263367	-2465.964600	465.681702	533.341736	-2512.039551	287.939301	534.136475	-2602.543701	207.053635	554.520813	-2462.370361	207.352524	527.337341	-2562.940430	45.455021	493.554749	-2420.963623	56.709309	483.347809	-2676.473877	345.370636	281.689667	-2776.760254	43.108257	282.917694	-2509.241943	369.403198	519.996216	-2520.314453	49.966469	524.355164	-2779.479492	42.232452	316.693359	-2671.986816	336.796082	332.256500	-2520.326172	54.185535	487.721985	-2505.355957	367.394775	466.346405	-2637.236545	626.655547	470.297055	-2635.826358	624.788529	312.704008	
5	0.020000	-2649.477539	1017.283203	382.120544	-2673.848389	843.728455	378.363953	-2537.654297	980.501282	397.603241	-2489.492920	849.904236	398.138519	-2681.147217	957.524292	465.980530	-2557.850830	675.516418	283.603943	-2559.190674	678.132446	500.259247	-2699.085205	735.413391	393.461212	-2619.652344	489.651855	255.869461	-2697.048096	431.516266	256.469543	-2566.978271	382.945709	284.723145	-2700.174072	252.725281	264.480652	-2805.316162	201.087967	234.694534	-2681.267334	158.672241	284.929687	-2824.079590	53.774502	302.350983	-2688.026367	41.101948	325.597748	-2569.098145	524.969238	542.985840	-2599.056885	433.462585	531.923584	-2460.326904	464.020233	532.548340	-2503.355469	287.893280	534.104126	-2590.493896	204.268219	556.572693	-2450.817871	209.167526	527.329773	-2545.586670	43.225792	495.922668	-2404.419922	59.551582	484.974243	-2673.802979	345.066345	282.024292	-2776.836182	43.677544	282.999512	-2503.693848	367.810486	518.850586	-2503.026367	49.690453	526.720276	-2779.452881	42.723972	316.781158	-2668.952393	336.260895	332.517822	-2503.721191	53.536442	490.052643	-2500.037842	366.104156	465.174103	-2631.078784	625.577943	470.911742	-2630.104205	623.675091	313.320584	
6	0.025000	-2643.275391	1015.931580	383.050232	-2667.476318	842.363281	379.263611	-2531.389648	979.217651	398.371033	-2483.119141	848.716614	398.835236	-2674.888672	956.239990	466.776001	-2551.855713	674.111389	284.062256	-2552.645752	676.741089	500.676971	-2692.663818	734.625000	394.156036	-2615.662109	488.952911	256.226013	-2693.475830	431.545776	257.333496	-2563.813965	381.729706	284.132965	-2698.037354	252.582260	264.903503	-2803.787109	202.142609	235.413483	-2680.123779	158.339218	284.954132	-2823.955322	54.750904	302.817322	-2687.934326	41.115192	325.602051	-2563.403320	523.247192	543.039429	-2593.583740	431.972748	531.621643	-2454.661133	462.348358	531.852295	-2494.777588	287.794006	534.081055	-2578.622070	201.666916	558.549988	-2439.583252	210.849564	527.278320	-2528.938477	41.226208	498.009583	-2388.453613	62.412724	486.475952	-2670.910889	344.771301	282.313995	-2776.897461	44.323719	283.081268	-2498.160889	366.195160	517.796570	-2486.236328	49.686016	528.899414	-2779.388672	43.291855	316.870117	-2665.671387	335.716888	332.724609	-2487.577393	53.147705	492.211456	-2494.714111	364.779144	464.097809	-2624.836861	624.499693	471.518053	-2624.262191	622.586862	313.953514	
7	0.030000	-2637.060059	1014.635742	384.017609	-2661.100098	841.053528	380.169739	-2525.109863	977.982788	399.186188	-2476.719482	847.577271	399.587708	-2668.606689	954.994080	467.624023	-2545.761719	672.761719	284.566101	-2546.051025	675.369507	501.103729	-2686.222168	733.810181	394.845032	-2611.557373	488.295532	256.555878	-2689.760742	431.555511	258.183289	-2560.454590	380.527527	283.482239	-2695.797363	252.453278	265.262909	-2802.196533	203.281189	236.139130	-2678.901611	158.012177	284.912323	-2823.776367	55.854248	303.217621	-2687.840820	41.132004	325.567505	-2557.617920	521.548462	543.129456	-2588.058105	430.485657	531.358521	-2448.961182	460.671509	531.254639	-2486.305176	287.640320	534.065186	-2566.951416	199.242920	560.432434	-2428.669189	212.389923	527.184204	-2513.011963	39.451332	499.818970	-2373.083252	65.258232	487.835419	-2667.793701	344.480865	282.559296	-2776.938965	45.048771	283.162231	-2492.634033	364.561646	516.835999	-2469.999268	49.902805	530.870422	-2779.283203	43.937939	316.959076	-2662.144531	335.160797	332.877167	-2471.947266	52.977943	494.175201	-2489.375488	363.423859	463.118927	-2618.511349	623.421085	472.116273	-2618.300902	621.524128	314.602511	
